# xmcd
#
# Track frame offsets: 
#        150
#        8161
#        23452
#        33240
#        42451
#        50649
#        56635
#        65889
#        78829
#        90954
#        98217
#        105323
#        116037
#        123480
#        134181
#        148490
#
# Disc length: 2095 seconds
#
# Revision: 0
# Processed by: cddbd v1.5.2PL0 Copyright (c) Steve Scherf et al.
# Submitted via: ExactAudioCopyFreeDBPlugin 1.0
#
DISCID=df082d10
DTITLE=Anderson, Marisa - Mercury
DYEAR=2013
DGENRE=Folk
TTITLE0=The New Country
TTITLE1=Deep Gap
TTITLE2=Down Off The Mountain
TTITLE3=Old Names
TTITLE4=Austin, Eureka, And Ely
TTITLE5=Trinity
TTITLE6=Mojave
TTITLE7=Furnace Creek
TTITLE8=Embudo
TTITLE9=Mesquite Shade
TTITLE10=Happy Camp
TTITLE11=Galax
TTITLE12=Sinks And Rises
TTITLE13=Hesitation Theme And Variation Blues
TTITLE14=Colfax
TTITLE15=Red Sky
EXTD=
EXTT0=
EXTT1=
EXTT2=
EXTT3=
EXTT4=
EXTT5=
EXTT6=
EXTT7=
EXTT8=
EXTT9=
EXTT10=
EXTT11=
EXTT12=
EXTT13=
EXTT14=
EXTT15=
PLAYORDER=
